<svg width="100" height="63" viewBox="0 0 100 63" fill="none" xmlns="http://www.w3.org/2000/svg">
<path d="M1.06479 14.0348C2.43114 13.4452 3.89096 13.0093 5.14985 12.2427C16.3537 5.41843 28.5803 4.78164 40.9972 6.89944C45.2839 7.62998 49.673 9.59532 53.2925 12.0567C63.6394 19.0949 72.0252 28.1312 77.808 39.3324C79.4741 42.5615 80.5321 46.103 81.1077 49.9679C80.2402 49.142 79.3428 48.3457 78.5121 47.4843C76.0659 44.9478 73.7437 42.2802 71.1691 39.8826C70.0453 38.8362 68.477 38.1802 67.004 37.6375C66.4572 37.4361 65.3119 37.8707 64.9774 38.373C64.667 38.8388 64.7904 40.1162 65.2039 40.4652C72.0251 46.2254 76.8175 53.6845 82.2753 60.5884C84.1885 63.0087 85.9233 63.2975 88.0052 61.3169C93.2934 56.2833 97.2339 50.2756 99.9486 43.4878C100.038 43.263 99.7812 42.8988 99.5128 42.0585C93.1761 41.7929 92.3977 48.3684 87.7051 51.9427C87.5064 50.528 87.488 49.4591 87.1969 48.4723C81.5473 29.3708 69.3857 15.3741 52.7442 5.02111C50.2106 3.44453 47.2223 2.37691 44.2997 1.68469C33.4299 -0.892917 22.5917 -0.480123 12.1155 3.45838C8.74097 4.72724 5.72086 7.05102 2.72126 9.15215C1.55646 9.96836 0.896693 11.5047 0.00660102 12.7132C0.358715 13.1535 0.712141 13.5932 1.06479 14.0348Z" fill="#55B047"/>
</svg>
