<svg width="105" height="48" viewBox="0 0 105 48" fill="none" xmlns="http://www.w3.org/2000/svg">
<path d="M103.351 23.6897C102.196 22.7517 100.909 21.9363 99.9051 20.8571C90.9714 11.2505 79.3755 7.32233 66.8495 5.99395C62.5253 5.53478 57.7678 6.2364 53.6165 7.62416C41.7488 11.5931 31.2269 18.017 22.6236 27.2307C20.1443 29.887 18.1657 33.009 16.5637 36.573C17.6226 36.0133 18.7023 35.4901 19.7355 34.8862C22.7778 33.108 25.7364 31.1701 28.8646 29.5604C30.23 28.8579 31.9175 28.6517 33.4824 28.5287C34.0633 28.4832 35.0479 29.212 35.2337 29.7862C35.4061 30.3187 34.941 31.5148 34.4483 31.7386C26.3208 35.4334 19.6854 41.3137 12.5601 46.479C10.0623 48.2899 8.31412 48.0975 6.84731 45.6265C3.12206 39.3476 0.958183 32.4966 0.18569 25.227C0.160179 24.9863 0.506572 24.7054 0.992759 23.9693C7.16404 25.4319 6.13031 31.9721 9.67796 36.6849C10.2529 35.3771 10.5604 34.3533 11.1081 33.4824C21.7254 16.6284 37.2266 6.45355 56.0519 1.00079C58.9181 0.170277 62.084 -0.0470735 65.0847 0.0790908C76.2463 0.545403 86.5665 3.8815 95.5822 10.5131C98.4864 12.6494 100.763 15.705 103.081 18.5408C103.981 19.6422 104.199 21.2999 104.728 22.7045C104.27 23.0328 103.81 23.3603 103.351 23.6897Z" fill="#F58232"/>
</svg>
